<svg width="360" height="60" viewBox="0 0 360 60" fill="none" xmlns="http://www.w3.org/2000/svg">
<path d="M46.3674 100.09C41.9836 100.09 38.8432 98.5202 36.6513 95.2323C34.4594 92.1025 33.5215 87.7082 33.5215 82.3865V32.7312H48.2432V29.4433H33.5215V0H15.8176V29.4433H0V32.7312H15.8176V75.1784C15.8176 85.0526 17.862 92.1025 22.0877 96.3283C24.5958 99.142 28.0417 101.028 32.1094 102.282C36.4933 103.536 40.0973 104 43.0795 104C47.7795 104 51.2254 103.536 53.4174 102.282L52.4689 99.142C50.277 99.7742 48.2432 100.09 46.3674 100.09Z" fill="#004AAD"/>
<path d="M122.949 27.8837V33.0473C116.531 28.9797 109.639 26.9353 102.126 26.9353C91.6298 26.9353 82.546 30.6974 74.8637 38.2215C67.3501 45.7352 63.588 54.819 63.588 65.4729C63.588 75.9688 67.3501 85.0526 74.8637 92.7243C82.546 100.238 91.6298 104 102.126 104C109.639 104 116.531 101.966 122.949 97.8985V103.062H140.653V27.8837H122.949ZM122.949 93.9783C116.847 98.5202 109.955 100.712 102.126 100.712C95.8555 100.712 91.1556 98.8364 88.3419 94.9162C85.3596 91.1541 83.6419 86.7703 83.0096 81.9123C82.3879 77.2228 82.0718 71.7325 82.0718 65.4729C82.0718 58.2649 82.3879 52.469 83.1677 48.0851C83.9475 43.7013 85.6758 39.7812 88.3419 36.1771C91.3136 32.2675 95.8555 30.2337 102.126 30.2337C109.955 30.2337 116.847 32.5731 122.949 36.9675V93.9783Z" fill="#004AAD"/>
<path d="M230.548 60.4568C230.548 49.4972 227.892 41.0352 222.876 35.2393C218.018 29.7595 211.126 26.9353 202.201 26.9353C197.659 26.9353 193.275 28.1893 189.039 30.6974C184.813 33.2054 181.683 36.1771 179.797 39.7812V27.8837H162.103V103.062H179.797V62.3431C179.797 55.2932 180.113 49.9609 181.051 46.515C181.999 42.1311 184.349 38.5271 188.101 35.7135C191.547 32.8893 194.993 31.3296 198.439 31.3296C202.359 31.3296 205.805 33.5216 208.618 37.5892C211.443 41.815 212.855 47.9271 212.855 55.9149V103.062H230.548V60.4568Z" fill="#004AAD"/>
<path d="M371.844 100.712C365.574 100.712 360.874 98.8363 358.06 94.9162C355.078 91.1541 353.36 86.7703 352.728 81.9122C352.106 77.2228 351.79 71.7325 351.79 65.4729C351.79 58.2649 352.106 52.4689 352.886 48.0851C353.666 43.7013 355.394 39.7811 358.06 36.1771C361.032 32.2675 365.574 30.2337 371.844 30.2337C379.673 30.2337 386.565 32.5731 392.667 36.9675V93.8202C386.407 98.5202 379.515 100.712 371.844 100.712ZM344.582 38.2215C337.068 45.7351 333.306 54.8189 333.306 65.4729C333.306 75.9688 337.068 85.0526 344.582 92.7243C352.264 100.238 361.348 104 371.844 104C379.357 104 386.249 101.966 392.667 97.8985V103.062H410.371V0H392.667V33.0473C386.407 28.9796 379.515 26.9353 371.844 26.9353C361.19 26.9353 352.106 30.6973 344.582 38.2215Z" fill="#004AAD"/>
<path d="M501.678 65.4729C501.678 54.977 498.074 45.8932 491.182 38.2215C484.132 30.6974 475.365 26.9353 464.711 26.9353C454.215 26.9353 445.289 30.6974 437.775 38.2215C430.567 46.0513 426.963 55.1351 426.963 65.4729C426.963 75.9688 430.725 85.0526 438.239 92.7243C445.921 100.238 455.005 104 465.501 104C471.919 104 478.031 102.588 483.669 99.4581C489.307 96.3283 494.006 92.1026 497.758 86.6122L494.944 84.7365C491.656 89.7526 487.42 93.6622 482.257 96.4864C476.935 99.3001 471.445 100.712 465.501 100.712C459.853 100.712 455.469 99.142 452.339 95.696C449.209 92.4082 447.175 88.1824 446.543 82.8607C445.763 78.4663 445.447 73.3027 445.447 67.1906H501.678V65.4729ZM445.447 63.9027C445.447 57.327 445.763 51.8472 446.543 47.6109C447.323 43.3852 449.051 39.6231 451.559 36.1771C454.373 32.5731 458.609 30.5393 464.247 30.2337C469.411 30.5393 473.489 32.4256 476.461 35.8715C479.285 39.3175 481.161 43.3852 481.94 48.4013C482.573 52.3109 482.878 57.4851 483.194 63.9027H445.447Z" fill="#004AAD"/>
<path d="M623.844 58.8972C623.844 47.9271 621.653 39.9392 617.416 34.6175C612.874 29.6014 606.931 26.9353 599.407 26.9353C592.989 26.9353 587.815 28.8216 584.063 32.2675C580.923 35.0812 578.889 38.5271 577.951 42.6054C576.855 39.7812 575.285 37.1256 573.409 34.6175C569.184 29.6014 563.23 26.9353 555.4 26.9353C549.13 26.9353 543.966 28.8216 540.204 32.2675C538.634 33.8272 537.222 35.7135 535.968 37.7473V27.8837H518.274V103.062H535.968V56.5472C535.968 49.8028 536.758 44.4811 538.476 40.4134C539.414 37.9054 541.142 35.7135 543.65 33.9852C546.158 32.2675 548.814 31.3296 551.638 31.3296C555.705 31.3296 558.53 33.0473 560.089 36.1771C561.659 39.3175 562.439 44.165 562.439 50.5932L562.292 58.8972V103.062H579.985V58.8972C579.985 50.7513 580.765 44.6392 582.335 40.4134C583.589 37.9054 585.307 35.7135 587.815 33.9852C590.165 32.2675 592.673 31.3296 595.497 31.3296C599.565 31.3296 602.389 33.0473 603.949 36.1771C605.519 39.3175 606.299 44.0174 606.299 50.119L606.141 58.8972V103.062H623.844V58.8972Z" fill="#004AAD"/>
<mask id="mask0_5_69" style="mask-type:luminance" maskUnits="userSpaceOnUse" x="275" y="48" width="36" height="34">
<path d="M275.38 48.8861H310.45V81.259H275.38V48.8861Z" fill="white"/>
</mask>
<g mask="url(#mask0_5_69)">
<mask id="mask1_5_69" style="mask-type:luminance" maskUnits="userSpaceOnUse" x="277" y="48" width="32" height="32">
<path d="M277.656 64.6194L293.316 48.9598L308.617 64.2611L292.957 79.9206L277.656 64.6194Z" fill="white"/>
</mask>
<g mask="url(#mask1_5_69)">
<mask id="mask2_5_69" style="mask-type:luminance" maskUnits="userSpaceOnUse" x="277" y="48" width="32" height="32">
<path d="M277.656 64.6195L293.294 48.981L308.596 64.2823L292.957 79.9207L277.656 64.6195Z" fill="white"/>
</mask>
<g mask="url(#mask2_5_69)">
<path d="M277.656 64.6194L293.316 48.9598L308.617 64.2611L292.957 79.9206L277.656 64.6194Z" fill="#004AAD"/>
</g>
</g>
</g>
</svg>
