<svg width="180" height="30" viewBox="0 0 180 30" fill="none" xmlns="http://www.w3.org/2000/svg">
<path d="M13.3752 28.8722C12.1106 28.8722 11.2048 28.4193 10.5725 27.4709C9.94022 26.568 9.66967 25.3004 9.66967 23.7653V9.44169H13.9163V8.49326H9.66967V0H4.56277V8.49326H0V9.44169H4.56277V21.6861C4.56277 24.5344 5.1525 26.568 6.37147 27.787C7.09494 28.5986 8.08896 29.1428 9.26234 29.5045C10.5269 29.8662 11.5665 30 12.4268 30C13.7825 30 14.7766 29.8662 15.4089 29.5045L15.1353 28.5986C14.503 28.781 13.9163 28.8722 13.3752 28.8722Z" fill="#004AAD"/>
<path d="M35.4661 8.04409V9.5336C33.6148 8.36023 31.6268 7.77051 29.4594 7.77051C26.4317 7.77051 23.8114 8.85572 21.5954 11.0262C19.428 13.1935 18.3428 15.8139 18.3428 18.8871C18.3428 21.9148 19.428 24.5351 21.5954 26.7481C23.8114 28.9155 26.4317 30.0007 29.4594 30.0007C31.6268 30.0007 33.6148 29.414 35.4661 28.2407V29.7302H40.573V8.04409H35.4661ZM35.4661 27.1099C33.706 28.42 31.718 29.0523 29.4594 29.0523C27.6507 29.0523 26.2949 28.5112 25.4833 27.3804C24.623 26.2952 24.1276 25.0306 23.9452 23.6293C23.7658 22.2765 23.6746 20.6928 23.6746 18.8871C23.6746 16.8079 23.7658 15.136 23.9908 13.8714C24.2157 12.6069 24.7142 11.4761 25.4833 10.4364C26.3405 9.30866 27.6507 8.72197 29.4594 8.72197C31.718 8.72197 33.706 9.39681 35.4661 10.6644V27.1099Z" fill="#004AAD"/>
<path d="M66.5041 17.4402C66.5041 14.2788 65.7381 11.8378 64.2911 10.1659C62.8898 8.58518 60.9017 7.77051 58.327 7.77051C57.0169 7.77051 55.7523 8.13225 54.5303 8.85572C53.3113 9.5792 52.4085 10.4364 51.8644 11.4761V8.04409H46.7605V29.7302H51.8644V17.9843C51.8644 15.9507 51.9556 14.4125 52.2261 13.4185C52.4997 12.1539 53.1776 11.1143 54.2597 10.3027C55.2538 9.48801 56.2478 9.03811 57.2418 9.03811C58.3726 9.03811 59.3666 9.6704 60.1783 10.8438C60.9929 12.0627 61.4003 13.8258 61.4003 16.13V29.7302H66.5041V17.4402Z" fill="#004AAD"/>
<path d="M107.263 29.0516C105.454 29.0516 104.098 28.5105 103.287 27.3797C102.426 26.2945 101.931 25.0299 101.748 23.6285C101.569 22.2758 101.478 20.6921 101.478 18.8864C101.478 16.8072 101.569 15.1353 101.794 13.8707C102.019 12.6061 102.517 11.4753 103.287 10.4357C104.144 9.30793 105.454 8.72125 107.263 8.72125C109.521 8.72125 111.509 9.39609 113.269 10.6637V27.0635C111.464 28.4193 109.476 29.0516 107.263 29.0516ZM99.3986 11.0254C97.2312 13.1928 96.146 15.8132 96.146 18.8864C96.146 21.9141 97.2312 24.5344 99.3986 26.7474C101.615 28.9148 104.235 30 107.263 30C109.43 30 111.418 29.4133 113.269 28.2399V29.7295H118.376V0H113.269V9.53288C111.464 8.35951 109.476 7.76978 107.263 7.76978C104.189 7.76978 101.569 8.855 99.3986 11.0254Z" fill="#004AAD"/>
<path d="M144.715 18.8871C144.715 15.8595 143.675 13.2391 141.687 11.0262C139.654 8.85572 137.124 7.77051 134.051 7.77051C131.024 7.77051 128.449 8.85572 126.281 11.0262C124.202 13.2847 123.163 15.9051 123.163 18.8871C123.163 21.9148 124.248 24.5351 126.415 26.7481C128.631 28.9155 131.252 30.0007 134.279 30.0007C136.13 30.0007 137.894 29.5934 139.52 28.6906C141.146 27.7877 142.502 26.5688 143.584 24.985L142.772 24.4439C141.824 25.8909 140.602 27.0187 139.113 27.8333C137.577 28.645 135.994 29.0523 134.279 29.0523C132.65 29.0523 131.385 28.5994 130.482 27.6053C129.58 26.6569 128.993 25.438 128.811 23.9028C128.586 22.6352 128.494 21.1457 128.494 19.3826H144.715V18.8871ZM128.494 18.4342C128.494 16.5374 128.586 14.9566 128.811 13.7346C129.036 12.5157 129.534 11.4305 130.258 10.4364C131.069 9.39681 132.291 8.81013 133.917 8.72197C135.407 8.81013 136.583 9.35425 137.441 10.3483C138.255 11.3423 138.796 12.5157 139.021 13.9626C139.204 15.0904 139.292 16.583 139.383 18.4342H128.494Z" fill="#004AAD"/>
<path d="M179.955 16.9903C179.955 13.8258 179.323 11.5216 178.101 9.98654C176.791 8.53958 175.076 7.77051 172.906 7.77051C171.055 7.77051 169.562 8.31464 168.48 9.30866C167.574 10.1203 166.987 11.1143 166.717 12.2907C166.401 11.4761 165.948 10.71 165.407 9.98654C164.188 8.53958 162.47 7.77051 160.211 7.77051C158.403 7.77051 156.913 8.31464 155.828 9.30866C155.375 9.75855 154.968 10.3027 154.606 10.8894V8.04409H149.502V29.7302H154.606V16.3124C154.606 14.3669 154.834 12.8318 155.33 11.6584C155.6 10.935 156.099 10.3027 156.822 9.80415C157.546 9.30866 158.312 9.03811 159.126 9.03811C160.3 9.03811 161.114 9.5336 161.564 10.4364C162.017 11.3423 162.242 12.7406 162.242 14.5949L162.2 16.9903V29.7302H167.303V16.9903C167.303 14.6405 167.528 12.8774 167.981 11.6584C168.343 10.935 168.839 10.3027 169.562 9.80415C170.24 9.30866 170.963 9.03811 171.778 9.03811C172.951 9.03811 173.766 9.5336 174.216 10.4364C174.669 11.3423 174.894 12.6981 174.894 14.4581L174.848 16.9903V29.7302H179.955V16.9903Z" fill="#004AAD"/>
<mask id="mask0_174_44" style="mask-type:luminance" maskUnits="userSpaceOnUse" x="79" y="14" width="11" height="10">
<path d="M79.4365 14.1021H89.553V23.4404H79.4365V14.1021Z" fill="white"/>
</mask>
<g mask="url(#mask0_174_44)">
<mask id="mask1_174_44" style="mask-type:luminance" maskUnits="userSpaceOnUse" x="80" y="14" width="10" height="10">
<path d="M80.093 18.6412L84.6102 14.124L89.024 18.5378L84.5068 23.055L80.093 18.6412Z" fill="white"/>
</mask>
<g mask="url(#mask1_174_44)">
<mask id="mask2_174_44" style="mask-type:luminance" maskUnits="userSpaceOnUse" x="80" y="14" width="10" height="10">
<path d="M80.093 18.6405L84.6041 14.1294L89.0179 18.5432L84.5068 23.0543L80.093 18.6405Z" fill="white"/>
</mask>
<g mask="url(#mask2_174_44)">
<path d="M80.093 18.6412L84.6102 14.124L89.024 18.5378L84.5068 23.055L80.093 18.6412Z" fill="#004AAD"/>
</g>
</g>
</g>
</svg>
