<svg width="360" height="60" viewBox="0 0 360 60" fill="none" xmlns="http://www.w3.org/2000/svg">
<path d="M26.7504 57.7445C24.2213 57.7445 22.4096 56.8386 21.145 54.9417C19.8804 53.1361 19.3393 50.6009 19.3393 47.5307V18.8834H27.8326V16.9865H19.3393V0H9.12554V16.9865H0V18.8834H9.12554V43.3722C9.12554 49.0688 10.305 53.1361 12.7429 55.574C14.1899 57.1973 16.1779 58.2855 18.5247 59.009C21.0538 59.7325 23.133 60 24.8536 60C27.5651 60 29.5531 59.7325 30.8177 59.009L30.2705 57.1973C29.006 57.5621 27.8326 57.7445 26.7504 57.7445Z" fill="#004AAD"/>
<path d="M70.9321 16.0867V19.0657C67.2296 16.719 63.2535 15.5396 58.9187 15.5396C52.8634 15.5396 47.6227 17.71 43.1907 22.0508C38.8559 26.3856 36.6854 31.6263 36.6854 37.7728C36.6854 43.8281 38.8559 49.0688 43.1907 53.4948C47.6227 57.8295 52.8634 60 58.9187 60C63.2535 60 67.2296 58.8266 70.9321 56.4799V59.4589H81.1459V16.0867H70.9321ZM70.9321 54.2182C67.412 56.8386 63.4359 58.1031 58.9187 58.1031C55.3013 58.1031 52.5898 57.021 50.9665 54.7593C49.246 52.5889 48.255 50.0598 47.8902 47.257C47.5315 44.5516 47.3491 41.3841 47.3491 37.7728C47.3491 33.6143 47.5315 30.2705 47.9814 27.7414C48.4313 25.2123 49.4284 22.9506 50.9665 20.8714C52.681 18.6158 55.3013 17.4425 58.9187 17.4425C63.4359 17.4425 67.412 18.7922 70.9321 21.3274V54.2182Z" fill="#004AAD"/>
<path d="M133.008 34.8789C133.008 28.5561 131.476 23.6741 128.582 20.3303C125.78 17.1689 121.804 15.5396 116.654 15.5396C114.034 15.5396 111.505 16.263 109.061 17.71C106.623 19.1569 104.817 20.8714 103.729 22.9506V16.0867H93.5211V59.4589H103.729V35.9672C103.729 31.8999 103.911 28.8236 104.452 26.8355C104.999 24.3064 106.355 22.2272 108.52 20.6039C110.508 18.9745 112.496 18.0748 114.484 18.0748C116.745 18.0748 118.733 19.3393 120.357 21.6861C121.986 24.124 122.801 27.6502 122.801 32.2586V59.4589H133.008V34.8789Z" fill="#004AAD"/>
<path d="M214.525 58.1032C210.908 58.1032 208.196 57.021 206.573 54.7593C204.853 52.5889 203.862 50.0598 203.497 47.2571C203.138 44.5516 202.956 41.3841 202.956 37.7728C202.956 33.6143 203.138 30.2705 203.588 27.7414C204.038 25.2123 205.035 22.9507 206.573 20.8714C208.288 18.6159 210.908 17.4425 214.525 17.4425C219.042 17.4425 223.019 18.7922 226.539 21.3274V54.1271C222.927 56.8386 218.951 58.1032 214.525 58.1032ZM198.797 22.0509C194.462 26.3857 192.292 31.6263 192.292 37.7728C192.292 43.8282 194.462 49.0688 198.797 53.4948C203.229 57.8296 208.47 60 214.525 60C218.86 60 222.836 58.8266 226.539 56.4799V59.4589H236.752V0H226.539V19.0658C222.927 16.719 218.951 15.5396 214.525 15.5396C208.379 15.5396 203.138 17.71 198.797 22.0509Z" fill="#004AAD"/>
<path d="M289.43 37.7728C289.43 31.7175 287.351 26.4768 283.374 22.0508C279.307 17.71 274.249 15.5396 268.102 15.5396C262.047 15.5396 256.898 17.71 252.563 22.0508C248.404 26.568 246.325 31.8087 246.325 37.7728C246.325 43.8281 248.496 49.0688 252.83 53.4948C257.262 57.8295 262.503 60 268.558 60C272.261 60 275.787 59.1853 279.04 57.3797C282.292 55.574 285.004 53.1361 287.168 49.9686L285.545 48.8864C283.648 51.7803 281.204 54.0359 278.225 55.6652C275.155 57.2885 271.987 58.1031 268.558 58.1031C265.3 58.1031 262.771 57.1973 260.965 55.2092C259.159 53.3124 257.986 50.8744 257.621 47.8042C257.171 45.269 256.989 42.29 256.989 38.7638H289.43V37.7728ZM256.989 36.8669C256.989 33.0732 257.171 29.9118 257.621 27.4678C258.071 25.0299 259.068 22.8594 260.515 20.8714C262.138 18.7922 264.582 17.6188 267.835 17.4425C270.814 17.6188 273.167 18.707 274.881 20.6951C276.511 22.6831 277.593 25.0299 278.043 27.9238C278.407 30.1793 278.584 33.1644 278.766 36.8669H256.989Z" fill="#004AAD"/>
<path d="M359.91 33.9791C359.91 27.6502 358.646 23.0418 356.202 19.9716C353.581 17.0777 350.152 15.5396 345.811 15.5396C342.109 15.5396 339.124 16.6278 336.96 18.6159C335.148 20.2391 333.974 22.2272 333.433 24.58C332.801 22.9506 331.895 21.4186 330.813 19.9716C328.375 17.0777 324.94 15.5396 320.423 15.5396C316.805 15.5396 313.826 16.6278 311.656 18.6159C310.75 19.5156 309.935 20.6039 309.212 21.7773V16.0867H299.004V59.4589H309.212V32.6234C309.212 28.7324 309.668 25.6622 310.659 23.3154C311.2 21.8685 312.197 20.6039 313.644 19.6068C315.091 18.6159 316.623 18.0748 318.252 18.0748C320.599 18.0748 322.229 19.0657 323.128 20.8714C324.034 22.6831 324.484 25.4798 324.484 29.1884L324.399 33.9791V59.4589H334.607V33.9791C334.607 29.2795 335.057 25.7534 335.962 23.3154C336.686 21.8685 337.677 20.6039 339.124 19.6068C340.48 18.6159 341.927 18.0748 343.556 18.0748C345.903 18.0748 347.532 19.0657 348.432 20.8714C349.338 22.6831 349.788 25.3947 349.788 28.9148L349.696 33.9791V59.4589H359.91V33.9791Z" fill="#004AAD"/>
<mask id="mask0_168_43" style="mask-type:luminance" maskUnits="userSpaceOnUse" x="158" y="28" width="22" height="19">
<path d="M158.873 28.2041H179.106V46.8808H158.873V28.2041Z" fill="white"/>
</mask>
<g mask="url(#mask0_168_43)">
<mask id="mask1_168_43" style="mask-type:luminance" maskUnits="userSpaceOnUse" x="160" y="28" width="19" height="19">
<path d="M160.186 37.2809L169.22 28.2466L178.048 37.0742L169.014 46.1086L160.186 37.2809Z" fill="white"/>
</mask>
<g mask="url(#mask1_168_43)">
<mask id="mask2_168_43" style="mask-type:luminance" maskUnits="userSpaceOnUse" x="160" y="28" width="19" height="19">
<path d="M160.186 37.28L169.208 28.2578L178.036 37.0855L169.014 46.1076L160.186 37.28Z" fill="white"/>
</mask>
<g mask="url(#mask2_168_43)">
<path d="M160.186 37.2809L169.22 28.2466L178.048 37.0742L169.014 46.1086L160.186 37.2809Z" fill="#004AAD"/>
</g>
</g>
</g>
</svg>
