<svg width="90" height="90" viewBox="0 0 90 90" fill="none" xmlns="http://www.w3.org/2000/svg">
<path d="M78.75 16.875H11.25C10.5041 16.875 9.78871 17.1713 9.26126 17.6988C8.73382 18.2262 8.4375 18.9416 8.4375 19.6875V67.5C8.4375 68.9918 9.03013 70.4226 10.085 71.4775C11.1399 72.5324 12.5707 73.125 14.0625 73.125H75.9375C77.4293 73.125 78.8601 72.5324 79.915 71.4775C80.9699 70.4226 81.5625 68.9918 81.5625 67.5V19.6875C81.5625 18.9416 81.2662 18.2262 80.7387 17.6988C80.2113 17.1713 79.4959 16.875 78.75 16.875ZM71.5184 22.5L45 46.8105L18.4816 22.5H71.5184ZM75.9375 67.5H14.0625V26.0824L43.098 52.6992C43.6169 53.1755 44.2956 53.4398 45 53.4398C45.7044 53.4398 46.3831 53.1755 46.902 52.6992L75.9375 26.0824V67.5Z" fill="#004AAD"/>
</svg>
