<svg width="90" height="90" viewBox="0 0 90 90" fill="none" xmlns="http://www.w3.org/2000/svg">
<path d="M78.1769 55.7086L61.6148 48.2871L61.5691 48.266C60.7093 47.8983 59.7714 47.7507 58.8402 47.8366C57.909 47.9226 57.0139 48.2393 56.2359 48.7582C56.1443 48.8187 56.0563 48.8845 55.9722 48.9551L47.4152 56.25C41.9941 53.6168 36.3972 48.0621 33.764 42.7113L41.0695 34.0242C41.1398 33.9363 41.2066 33.8485 41.2699 33.7535C41.7776 32.9776 42.0857 32.0883 42.1667 31.1645C42.2476 30.2408 42.099 29.3114 41.734 28.459V28.4168L34.2914 11.8266C33.8088 10.7131 32.9791 9.78546 31.926 9.18227C30.873 8.57907 29.653 8.33262 28.4484 8.47971C23.6846 9.10657 19.3119 11.4461 16.147 15.0613C12.9821 18.6765 11.2414 23.3202 11.25 28.125C11.25 56.0391 33.9609 78.75 61.875 78.75C66.6798 78.7586 71.3235 77.0179 74.9387 73.853C78.5539 70.6881 80.8934 66.3154 81.5203 61.5516C81.6676 60.3474 81.4217 59.1278 80.8192 58.0747C80.2166 57.0217 79.2898 56.1917 78.1769 55.7086ZM61.875 73.125C49.9442 73.112 38.5059 68.3667 30.0696 59.9304C21.6332 51.4941 16.888 40.0558 16.875 28.125C16.8617 24.692 18.0986 21.3715 20.3545 18.7837C22.6104 16.1959 25.7312 14.5177 29.134 14.0625C29.1326 14.0765 29.1326 14.0907 29.134 14.1047L36.5168 30.6281L29.25 39.3258C29.1762 39.4107 29.1092 39.5012 29.0496 39.5965C28.5205 40.4083 28.2102 41.343 28.1486 42.3101C28.087 43.2771 28.2762 44.2437 28.698 45.116C31.8832 51.6305 38.4468 58.1449 45.0316 61.3266C45.9104 61.7444 46.8825 61.9271 47.8531 61.8569C48.8236 61.7866 49.7593 61.4658 50.5687 60.9258C50.659 60.865 50.7458 60.7993 50.8289 60.7289L59.3754 53.4375L75.8988 60.8379H75.9375C75.4879 64.2455 73.8122 67.3725 71.2239 69.634C68.6356 71.8955 65.3121 73.1366 61.875 73.125Z" fill="#004AAD"/>
</svg>
