<svg width="40" height="40" viewBox="0 0 40 40" fill="none" xmlns="http://www.w3.org/2000/svg">
<path d="M32.5426 17.7699C32.5426 21.046 31.3918 24.0487 29.3012 26.2212C27.3397 28.2604 24.6757 29.4307 21.9924 29.4307C19.8476 29.4307 18.2748 28.8504 17.149 28.1383L15.84 33.6993C15.7917 33.9142 15.7013 34.1173 15.574 34.297C15.4468 34.4767 15.2851 34.6294 15.0985 34.7462C14.9119 34.863 14.7039 34.9417 14.4867 34.9776C14.2694 35.0136 14.0472 35.0061 13.8329 34.9557C13.6185 34.9052 13.4163 34.8127 13.238 34.6836C13.0596 34.5545 12.9086 34.3914 12.7937 34.2035C12.6787 34.0157 12.6022 33.8069 12.5685 33.5893C12.5348 33.3718 12.5445 33.1496 12.5972 32.9358L17.0393 14.0565C17.0876 13.8417 17.178 13.6386 17.3053 13.4589C17.4325 13.2792 17.5942 13.1265 17.7808 13.0097C17.9674 12.8928 18.1754 12.8142 18.3926 12.7782C18.6099 12.7423 18.8321 12.7497 19.0464 12.8002C19.2608 12.8507 19.463 12.9431 19.6413 13.0722C19.8197 13.2013 19.9707 13.3645 20.0856 13.5523C20.2005 13.7402 20.2771 13.9489 20.3108 14.1665C20.3445 14.3841 20.3348 14.6062 20.2821 14.82L17.9986 24.5276C18.4831 25.1079 19.6547 26.099 21.9924 26.099C25.5406 26.099 29.2109 22.9826 29.2109 17.7699C29.2102 16.3224 28.8766 14.8945 28.2359 13.5966C27.5952 12.2986 26.6646 11.1654 25.516 10.2845C24.3674 9.40356 23.0316 8.7986 21.612 8.51636C20.1923 8.23411 18.7267 8.28213 17.3285 8.65671C15.9303 9.03129 14.637 9.72239 13.5486 10.6766C12.4601 11.6308 11.6057 12.8225 11.0513 14.1596C10.497 15.4968 10.2576 16.9434 10.3516 18.3879C10.4456 19.8323 10.8705 21.2358 11.5935 22.4897C11.7976 22.871 11.8454 23.3167 11.7268 23.7326C11.6082 24.1484 11.3326 24.5019 10.9582 24.7182C10.5837 24.9346 10.1398 24.9968 9.72034 24.8918C9.30084 24.7868 8.93862 24.5228 8.71024 24.1556C7.73104 22.459 7.1552 20.56 7.02727 18.6054C6.89934 16.6507 7.22275 14.6928 7.97248 12.8832C8.72221 11.0735 9.87817 9.46051 11.3509 8.16901C12.8237 6.87752 14.5738 5.94211 16.4659 5.43514C18.358 4.92818 20.3414 4.86324 22.2626 5.24535C24.1838 5.62746 25.9913 6.44638 27.5455 7.63876C29.0996 8.83115 30.3586 10.365 31.2251 12.1218C32.0916 13.8786 32.5424 15.8111 32.5426 17.7699Z" fill="#545454"/>
</svg>
